<svg xmlns="http://www.w3.org/2000/svg" viewBox="0 0 1200 675" role="img" aria-labelledby="title desc">
  <title id="title">Facebook post fallback 1</title>
  <desc id="desc">Abstract blue and orange background with simple content cards.</desc>
  <defs>
    <linearGradient id="bg" x1="0%" y1="0%" x2="100%" y2="100%">
      <stop offset="0%" stop-color="#EFF6FF"/>
      <stop offset="55%" stop-color="#DBEAFE"/>
      <stop offset="100%" stop-color="#FED7AA"/>
    </linearGradient>
    <linearGradient id="accent" x1="0%" y1="0%" x2="100%" y2="0%">
      <stop offset="0%" stop-color="#2563EB"/>
      <stop offset="100%" stop-color="#F97316"/>
    </linearGradient>
  </defs>
  <rect width="1200" height="675" fill="url(#bg)"/>
  <circle cx="1040" cy="120" r="130" fill="#BFDBFE" opacity=".7"/>
  <circle cx="150" cy="560" r="170" fill="#FDBA74" opacity=".55"/>
  <rect x="110" y="90" width="980" height="495" rx="34" fill="#FFFFFF" opacity=".96"/>
  <rect x="170" y="150" width="230" height="28" rx="14" fill="#DBEAFE"/>
  <rect x="170" y="205" width="600" height="60" rx="20" fill="#E2E8F0"/>
  <rect x="170" y="290" width="520" height="24" rx="12" fill="#E2E8F0"/>
  <rect x="170" y="330" width="470" height="24" rx="12" fill="#E2E8F0"/>
  <rect x="170" y="370" width="390" height="24" rx="12" fill="#E2E8F0"/>
  <rect x="170" y="445" width="220" height="54" rx="27" fill="url(#accent)"/>
  <rect x="790" y="190" width="220" height="220" rx="26" fill="#DBEAFE"/>
  <path d="M852 266h96v96h-96z" fill="#2563EB" opacity=".18"/>
  <path d="M830 430c38-52 88-78 150-78 18 0 36 2 54 7-20 43-64 82-125 111-25-11-51-24-79-40z" fill="#F97316" opacity=".35"/>
</svg>
