<svg xmlns="http://www.w3.org/2000/svg" viewBox="0 0 1200 675" role="img" aria-labelledby="title desc">
  <title id="title">Facebook post fallback 2</title>
  <desc id="desc">Abstract warm background with layered cards and wave accents.</desc>
  <defs>
    <linearGradient id="bg2" x1="0%" y1="0%" x2="100%" y2="100%">
      <stop offset="0%" stop-color="#FFF7ED"/>
      <stop offset="45%" stop-color="#FDE68A"/>
      <stop offset="100%" stop-color="#E0F2FE"/>
    </linearGradient>
    <linearGradient id="card2" x1="0%" y1="0%" x2="100%" y2="100%">
      <stop offset="0%" stop-color="#FFFFFF"/>
      <stop offset="100%" stop-color="#F8FAFC"/>
    </linearGradient>
  </defs>
  <rect width="1200" height="675" fill="url(#bg2)"/>
  <path d="M0 500c120-60 240-90 360-90 175 0 301 75 454 75 143 0 272-44 386-132v322H0z" fill="#BAE6FD" opacity=".75"/>
  <rect x="120" y="100" width="960" height="455" rx="34" fill="url(#card2)" opacity=".97"/>
  <rect x="175" y="150" width="150" height="150" rx="24" fill="#F97316" opacity=".18"/>
  <rect x="350" y="155" width="250" height="26" rx="13" fill="#FED7AA"/>
  <rect x="350" y="205" width="520" height="62" rx="20" fill="#E2E8F0"/>
  <rect x="175" y="345" width="845" height="20" rx="10" fill="#E2E8F0"/>
  <rect x="175" y="383" width="790" height="20" rx="10" fill="#E2E8F0"/>
  <rect x="175" y="421" width="640" height="20" rx="10" fill="#E2E8F0"/>
  <rect x="175" y="475" width="190" height="46" rx="23" fill="#2563EB" opacity=".88"/>
  <circle cx="980" cy="190" r="56" fill="#DBEAFE"/>
  <circle cx="980" cy="190" r="26" fill="#2563EB" opacity=".22"/>
</svg>
