<svg xmlns="http://www.w3.org/2000/svg" viewBox="0 0 800 1000" role="img" aria-labelledby="title desc">
  <title id="title">Undervisning</title>
  <desc id="desc">Illustrasjon av undervisning med notater, bok og mennesker i samling.</desc>
  <defs>
    <linearGradient id="bg" x1="0" x2="1" y1="0" y2="1">
      <stop offset="0%" stop-color="#101417"/>
      <stop offset="100%" stop-color="#1b252d"/>
    </linearGradient>
    <linearGradient id="card" x1="0" x2="1" y1="0" y2="1">
      <stop offset="0%" stop-color="#fff7ed"/>
      <stop offset="100%" stop-color="#ffe2c2"/>
    </linearGradient>
  </defs>
  <rect width="800" height="1000" fill="url(#bg)"/>
  <circle cx="650" cy="180" r="140" fill="#d17d39" opacity="0.12"/>
  <circle cx="130" cy="860" r="180" fill="#d17d39" opacity="0.08"/>
  <g opacity="0.9">
    <circle cx="150" cy="250" r="56" fill="#31414d"/>
    <circle cx="290" cy="220" r="62" fill="#445563"/>
    <circle cx="455" cy="245" r="60" fill="#2b3944"/>
    <circle cx="615" cy="230" r="58" fill="#3b4c59"/>
    <rect x="90" y="305" width="120" height="230" rx="48" fill="#31414d"/>
    <rect x="225" y="288" width="130" height="250" rx="54" fill="#445563"/>
    <rect x="390" y="312" width="130" height="242" rx="52" fill="#2b3944"/>
    <rect x="555" y="298" width="122" height="246" rx="50" fill="#3b4c59"/>
  </g>
  <g transform="rotate(-8 390 650)">
    <rect x="150" y="560" width="430" height="260" rx="28" fill="#f6f7fb"/>
    <rect x="170" y="585" width="180" height="18" rx="9" fill="#d17d39" opacity="0.9"/>
    <rect x="170" y="620" width="360" height="14" rx="7" fill="#c8d0d9"/>
    <rect x="170" y="650" width="330" height="14" rx="7" fill="#c8d0d9"/>
    <rect x="170" y="680" width="295" height="14" rx="7" fill="#c8d0d9"/>
    <rect x="170" y="715" width="205" height="48" rx="24" fill="#d17d39"/>
    <path d="M585 575h80c28 0 50 22 50 50v135c0 28-22 50-50 50h-80z" fill="#eceff5"/>
    <path d="M600 600h38c12 0 22 10 22 22v108c0 12-10 22-22 22h-38z" fill="#cfd8e3"/>
  </g>
  <g transform="translate(470 710)">
    <rect x="0" y="0" width="170" height="120" rx="26" fill="url(#card)"/>
    <path d="M38 38h52c20 0 38 12 50 30l18 28-42 28-25-19c-9-7-22-9-33-5L26 111 0 83l18-26c5-12 11-19 20-19z" fill="#d17d39"/>
  </g>
</svg>
