<svg xmlns="http://www.w3.org/2000/svg" viewBox="0 0 800 1000" role="img" aria-labelledby="title desc">
  <title id="title">Reisevirksomhet</title>
  <desc id="desc">Illustrasjon av reisevirksomhet med globus, rute og mennesker på vei.</desc>
  <defs>
    <linearGradient id="bg" x1="0" x2="1" y1="0" y2="1">
      <stop offset="0%" stop-color="#101417"/>
      <stop offset="100%" stop-color="#18222a"/>
    </linearGradient>
    <linearGradient id="sky" x1="0" x2="0" y1="0" y2="1">
      <stop offset="0%" stop-color="#22313a"/>
      <stop offset="100%" stop-color="#101417"/>
    </linearGradient>
  </defs>
  <rect width="800" height="1000" fill="url(#bg)"/>
  <rect x="70" y="110" width="660" height="780" rx="42" fill="url(#sky)"/>
  <circle cx="535" cy="315" r="165" fill="#d17d39" opacity="0.2"/>
  <circle cx="535" cy="315" r="128" fill="#1c2830"/>
  <ellipse cx="535" cy="315" rx="96" ry="128" fill="none" stroke="#d17d39" stroke-width="8" opacity="0.9"/>
  <ellipse cx="535" cy="315" rx="128" ry="54" fill="none" stroke="#d17d39" stroke-width="8" opacity="0.9"/>
  <path d="M407 315h256M535 187v256" stroke="#d17d39" stroke-width="8" opacity="0.9"/>
  <path d="M170 655c70-110 165-156 286-136 91 16 166 5 235-34" fill="none" stroke="#fff7ed" stroke-dasharray="12 14" stroke-linecap="round" stroke-width="10"/>
  <path d="M612 452l92 26-56 58-16-30-31-12z" fill="#fff7ed"/>
  <g>
    <circle cx="195" cy="650" r="18" fill="#d17d39"/>
    <circle cx="680" cy="485" r="18" fill="#d17d39"/>
  </g>
  <g opacity="0.96">
    <circle cx="220" cy="785" r="38" fill="#e8edf4"/>
    <rect x="188" y="824" width="64" height="110" rx="28" fill="#d4dce6"/>
    <circle cx="350" cy="760" r="34" fill="#dce3ec"/>
    <rect x="320" y="796" width="60" height="138" rx="26" fill="#c7d0db"/>
    <circle cx="470" cy="795" r="36" fill="#e8edf4"/>
    <rect x="438" y="834" width="64" height="102" rx="28" fill="#d4dce6"/>
    <circle cx="595" cy="772" r="34" fill="#dce3ec"/>
    <rect x="565" y="808" width="60" height="126" rx="26" fill="#c7d0db"/>
  </g>
  <rect x="125" y="165" width="200" height="18" rx="9" fill="#d17d39" opacity="0.9"/>
  <rect x="125" y="196" width="250" height="14" rx="7" fill="#98a8b7"/>
  <rect x="125" y="222" width="210" height="14" rx="7" fill="#98a8b7"/>
</svg>
